<svg width="21" height="20" viewBox="0 0 21 20" fill="none" xmlns="http://www.w3.org/2000/svg">
<path d="M18.499 8.50019L15.112 6.54395L11.6445 10.0114L15.1118 13.4787L18.5105 11.5159C19.0405 11.1939 19.3568 10.6314 19.3568 10.0114C19.3568 9.39144 19.0403 8.82894 18.499 8.50019Z" fill="#FFCE00"/>
<path d="M11.6446 10.0117L2.19987 0.499023C1.87137 0.827522 1.67188 1.27327 1.67188 1.76602V18.2285C1.67188 18.7212 1.87137 19.167 2.19987 19.4957L11.6446 10.0117Z" fill="url(#paint0_linear_38_9719)"/>
<path d="M11.6444 10.0118L15.1119 6.54429L15.1174 6.53879L10.4714 3.8638L4.34695 0.264314C3.79545 -0.0759346 3.1267 -0.0876845 2.56346 0.229064C2.43446 0.311064 2.31696 0.393314 2.19971 0.498814L11.6444 10.0118Z" fill="#00F076"/>
<path d="M2.19971 19.4954C2.31696 19.6009 2.43446 19.6832 2.56346 19.7652C2.84495 19.9177 3.13845 19.9999 3.4317 19.9999C3.74845 19.9999 4.05345 19.9062 4.3352 19.7419L10.4712 16.1597L15.1172 13.4847L15.1117 13.4792L11.6444 10.0117L2.19971 19.4954Z" fill="#F63448"/>
<defs>
<linearGradient id="paint0_linear_38_9719" x1="-2.54911" y1="14.7465" x2="6.94911" y2="5.24801" gradientUnits="userSpaceOnUse">
<stop stop-color="#00E2FF"/>
<stop offset="1" stop-color="#00C5FF"/>
</linearGradient>
</defs>
</svg>
