<svg width="20" height="20" viewBox="0 0 20 20" fill="none" xmlns="http://www.w3.org/2000/svg">
<g clip-path="url(#clip0_38_9727)">
<path d="M15.8984 20H4.10156C1.83996 20 0 18.16 0 15.8984V4.10156C0 1.83996 1.83996 0 4.10156 0H15.8984C18.16 0 20 1.83996 20 4.10156V15.8984C20 18.16 18.16 20 15.8984 20Z" fill="#00C3FF"/>
<path d="M15.8984 0H10V20H15.8984C18.16 20 20 18.16 20 15.8984V4.10156C20 1.83996 18.16 0 15.8984 0Z" fill="#00AAF0"/>
<path d="M6.15805 15.4107C5.97739 15.7237 5.64844 15.8988 5.31067 15.8988C5.14508 15.8988 4.97743 15.8568 4.82403 15.7682C4.3577 15.499 4.19735 14.9005 4.46657 14.4342L4.65864 14.1016H6.91391L6.15805 15.4107Z" fill="white"/>
<path d="M4.31641 13.32C3.77793 13.32 3.33984 12.8819 3.33984 12.3435C3.33984 11.805 3.77793 11.3669 4.31641 11.3669H6.23742L8.87234 6.80308L8.15824 5.56621C7.88902 5.09988 8.04934 4.50144 8.51566 4.23218C8.98199 3.96296 9.58047 4.12335 9.84969 4.58964L10 4.85L10.1503 4.58968C10.4196 4.12332 11.0181 3.963 11.4843 4.23222C11.7102 4.36265 11.8718 4.57324 11.9393 4.82519C12.0068 5.07714 11.9721 5.34035 11.8417 5.56625L8.49269 11.3669H10.6052L11.7328 13.32H4.31641Z" fill="white"/>
<path d="M15.6838 13.3197H14.8904L15.5334 14.4336C15.8027 14.8999 15.6423 15.4983 15.1761 15.7676C15.0255 15.8545 14.8585 15.8989 14.6893 15.8989C14.6045 15.8989 14.5191 15.8877 14.435 15.8652C14.183 15.7976 13.9724 15.636 13.842 15.4101L10.4512 9.53711L11.5788 7.58398L13.7627 11.3666H15.6838C16.2222 11.3666 16.6603 11.8047 16.6603 12.3432C16.6603 12.8816 16.2222 13.3197 15.6838 13.3197Z" fill="#F2F2F2"/>
<path d="M10 11.3672V13.3203H11.7328L10.6052 11.3672H10Z" fill="#F2F2F2"/>
<path d="M11.9393 4.82518C11.8718 4.57322 11.7102 4.3626 11.4843 4.23221C11.018 3.96299 10.4196 4.12326 10.1503 4.58967L10 4.84998V8.75623L11.8417 5.56623C11.9721 5.34033 12.0068 5.07717 11.9393 4.82518Z" fill="#F2F2F2"/>
</g>
<defs>
<clipPath id="clip0_38_9727">
<rect width="20" height="20" fill="white"/>
</clipPath>
</defs>
</svg>
