<svg width="16" height="16" viewBox="0 0 16 16" fill="none" xmlns="http://www.w3.org/2000/svg">
<path d="M12.1716 1.49112C11.4171 0.873347 10.5349 0.430718 9.58867 0.195159C8.64241 -0.0404 7.65567 -0.0630176 6.69961 0.128938C5.47032 0.380967 4.33938 0.981049 3.44152 1.8577C2.54366 2.73435 1.91672 3.85062 1.63538 5.07354C1.35404 6.29645 1.43016 7.57447 1.85468 8.75534C2.27919 9.93621 3.03421 10.9702 4.02979 11.734C5.16646 12.566 6.13426 13.6068 6.88143 14.801L7.39052 15.6475C7.45517 15.755 7.54655 15.844 7.65577 15.9058C7.76498 15.9675 7.88832 16 8.01379 16C8.13926 16 8.2626 15.9675 8.37181 15.9058C8.48103 15.844 8.57241 15.755 8.63706 15.6475L9.12507 14.8344C9.7757 13.6907 10.6628 12.6989 11.7273 11.9253C12.5619 11.3511 13.2516 10.5907 13.7421 9.70432C14.2326 8.81788 14.5104 7.82959 14.5535 6.81743C14.5967 5.80527 14.4041 4.79692 13.9908 3.87195C13.5776 2.94698 12.955 2.13069 12.1723 1.48748L12.1716 1.49112ZM8.01306 9.45549C7.4377 9.45549 6.87526 9.28488 6.39686 8.96522C5.91846 8.64557 5.54559 8.19123 5.32541 7.65966C5.10523 7.1281 5.04762 6.54317 5.15987 5.97886C5.27211 5.41456 5.54918 4.8962 5.95602 4.48936C6.36287 4.08252 6.88122 3.80545 7.44553 3.6932C8.00984 3.58095 8.59476 3.63856 9.12633 3.85875C9.65789 4.07893 10.1122 4.4518 10.4319 4.93019C10.7515 5.40859 10.9222 5.97104 10.9222 6.5464C10.9222 7.31794 10.6157 8.05788 10.0701 8.60344C9.52454 9.149 8.7846 9.45549 8.01306 9.45549Z" fill="white"/>
</svg>
