<svg width="52" height="52" viewBox="0 0 52 52" fill="none" xmlns="http://www.w3.org/2000/svg">
<g clip-path="url(#clip0_38_3852)">
<path d="M49.4223 23.4294H8.85912L22.6344 9.6542C22.8829 9.41413 23.0812 9.12695 23.2176 8.80943C23.354 8.49191 23.4258 8.1504 23.4288 7.80484C23.4318 7.45928 23.3659 7.11658 23.2351 6.79673C23.1042 6.47689 22.911 6.18631 22.6666 5.94195C22.4223 5.69759 22.1317 5.50435 21.8118 5.37349C21.492 5.24263 21.1493 5.17678 20.8037 5.17979C20.4582 5.18279 20.1167 5.25458 19.7991 5.39098C19.4816 5.52738 19.1944 5.72564 18.9544 5.97421L0.736597 24.192C0.248697 24.68 -0.0253906 25.3419 -0.0253906 26.032C-0.0253906 26.7221 0.248697 27.3839 0.736597 27.872L18.9544 46.0898C19.4452 46.5638 20.1026 46.8261 20.785 46.8202C21.4674 46.8143 22.1201 46.5406 22.6027 46.058C23.0852 45.5755 23.3589 44.9228 23.3648 44.2404C23.3708 43.558 23.1084 42.9006 22.6344 42.4098L8.85912 28.6345H49.4223C50.1125 28.6345 50.7745 28.3603 51.2626 27.8723C51.7506 27.3842 52.0248 26.7222 52.0248 26.032C52.0248 25.3417 51.7506 24.6798 51.2626 24.1917C50.7745 23.7036 50.1125 23.4294 49.4223 23.4294Z" fill="white"/>
</g>
<defs>
<clipPath id="clip0_38_3852">
<rect width="52" height="52" fill="white"/>
</clipPath>
</defs>
</svg>
