<svg width="76" height="48" viewBox="0 0 76 48" fill="none" xmlns="http://www.w3.org/2000/svg">
<path fill-rule="evenodd" clip-rule="evenodd" d="M20 38.0558C20 40.1931 20 41.8718 19.8238 43.1824C19.6432 44.5255 19.2656 45.5911 18.4284 46.4284C17.5911 47.2657 16.5255 47.6432 15.1824 47.8238C13.8718 48 12.193 48 10.0558 48L9.94419 48C7.80692 48 6.12819 48 4.81756 47.8238C3.47453 47.6432 2.40888 47.2657 1.57161 46.4284C0.734342 45.5911 0.356778 44.5255 0.176193 43.1824C-2.5137e-06 41.8718 -5.32976e-07 40.1931 -4.39553e-07 38.0558L-4.34675e-07 37.9442C-3.41252e-07 35.8069 -2.17522e-06 34.1282 0.176193 32.8176C0.356779 31.4745 0.734342 30.4089 1.57161 29.5716C2.40888 28.7344 3.47453 28.3568 4.81756 28.1762C6.12819 28 7.80693 28 9.94419 28L10.0558 28C12.193 28 13.8718 28 15.1824 28.1762C16.5255 28.3568 17.5911 28.7344 18.4284 29.5716C19.2656 30.4089 19.6432 31.4745 19.8238 32.8176C20 34.1282 20 35.8069 20 37.9442L20 38.0558ZM13.9024 38.9814C14.4412 38.9814 14.878 38.5445 14.878 38.0058C14.878 37.4669 14.4412 37.0301 13.9024 37.0301L9.51219 37.0301L9.51219 36.4503C9.51229 36.279 9.51249 36.0686 9.49093 35.8965L9.49054 35.8932C9.47512 35.7698 9.40507 35.2078 8.85327 34.9402C8.30019 34.6719 7.81229 34.9665 7.70673 35.0302L7.70283 35.0326C7.55356 35.1226 7.38683 35.2534 7.24966 35.3611L7.22019 35.3842C6.85346 35.6717 6.38107 36.0443 5.99961 36.4155C5.80927 36.6007 5.61298 36.8127 5.45795 37.038C5.32019 37.2381 5.12195 37.5798 5.12195 38C5.12195 38.4202 5.32019 38.7619 5.45795 38.962C5.61298 39.1873 5.80927 39.3993 5.99961 39.5845C6.38107 39.9557 6.85346 40.3283 7.22019 40.6158L7.24966 40.6389C7.38683 40.7465 7.55346 40.8775 7.70283 40.9674L7.70673 40.9698C7.81229 41.0335 8.30029 41.3281 8.85327 41.0598C9.40507 40.7922 9.47512 40.2301 9.49054 40.1068L9.49093 40.1035C9.51249 39.9314 9.51229 39.721 9.51219 39.5497L9.51219 38.9814L13.9024 38.9814Z" fill="white" fill-opacity="0.8"/>
<path fill-rule="evenodd" clip-rule="evenodd" d="M38.0558 28C40.1931 28 41.8718 28 43.1824 28.1762C44.5255 28.3568 45.5911 28.7344 46.4284 29.5716C47.2657 30.4089 47.6432 31.4745 47.8238 32.8176C48 34.1282 48 35.807 48 37.9442V38.0558C48 40.1931 48 41.8718 47.8238 43.1824C47.6432 44.5255 47.2657 45.5911 46.4284 46.4284C45.5911 47.2657 44.5255 47.6432 43.1824 47.8238C41.8718 48 40.1931 48 38.0558 48H37.9442C35.8069 48 34.1282 48 32.8176 47.8238C31.4745 47.6432 30.4089 47.2657 29.5716 46.4284C28.7344 45.5911 28.3568 44.5255 28.1762 43.1824C28 41.8718 28 40.1931 28 38.0558V37.9442C28 35.807 28 34.1282 28.1762 32.8176C28.3568 31.4745 28.7344 30.4089 29.5716 29.5716C30.4089 28.7344 31.4745 28.3568 32.8176 28.1762C34.1282 28 35.8069 28 37.9442 28H38.0558ZM38.9814 34.0976C38.9814 33.5588 38.5445 33.122 38.0058 33.122C37.4669 33.122 37.0301 33.5588 37.0301 34.0976V38.4878H36.4503C36.279 38.4877 36.0686 38.4875 35.8965 38.5091L35.8932 38.5095C35.7698 38.5249 35.2078 38.5949 34.9402 39.1467C34.6719 39.6998 34.9665 40.1877 35.0302 40.2933L35.0326 40.2972C35.1226 40.4464 35.2534 40.6132 35.3611 40.7503L35.3842 40.7798C35.6717 41.1465 36.0443 41.6189 36.4155 42.0004C36.6007 42.1907 36.8127 42.387 37.038 42.542C37.2381 42.6798 37.5798 42.878 38 42.878C38.4202 42.878 38.7619 42.6798 38.962 42.542C39.1873 42.387 39.3993 42.1907 39.5845 42.0004C39.9557 41.6189 40.3283 41.1465 40.6158 40.7798L40.6389 40.7503C40.7465 40.6132 40.8775 40.4465 40.9674 40.2972L40.9698 40.2933C41.0335 40.1877 41.3281 39.6997 41.0598 39.1467C40.7922 38.5949 40.2301 38.5249 40.1068 38.5095L40.1035 38.5091C39.9314 38.4875 39.721 38.4877 39.5497 38.4878H38.9814V34.0976Z" fill="white" fill-opacity="0.8"/>
<path fill-rule="evenodd" clip-rule="evenodd" d="M38.0558 20C40.1931 20 41.8718 20 43.1824 19.8238C44.5255 19.6432 45.5911 19.2656 46.4284 18.4284C47.2657 17.5911 47.6432 16.5255 47.8238 15.1824C48 13.8718 48 12.193 48 10.0558V9.94419C48 7.80693 48 6.12819 47.8238 4.81756C47.6432 3.47453 47.2657 2.40888 46.4284 1.57161C45.5911 0.734343 44.5255 0.356779 43.1824 0.176193C41.8718 -1.90735e-06 40.1931 0 38.0558 0H37.9442C35.8069 0 34.1282 -1.90735e-06 32.8176 0.176193C31.4745 0.356779 30.4089 0.734343 29.5716 1.57161C28.7344 2.40888 28.3568 3.47453 28.1762 4.81756C28 6.12819 28 7.80693 28 9.94419V10.0558C28 12.193 28 13.8718 28.1762 15.1824C28.3568 16.5255 28.7344 17.5911 29.5716 18.4284C30.4089 19.2656 31.4745 19.6432 32.8176 19.8238C34.1282 20 35.8069 20 37.9442 20H38.0558ZM38.9814 13.9024C38.9814 14.4412 38.5445 14.878 38.0058 14.878C37.4669 14.878 37.0301 14.4412 37.0301 13.9024V9.51219H36.4503C36.279 9.51229 36.0686 9.51249 35.8965 9.49093L35.8932 9.49054C35.7698 9.47512 35.2078 9.40507 34.9402 8.85327C34.6719 8.30019 34.9665 7.81229 35.0302 7.70673L35.0326 7.70283C35.1226 7.55356 35.2534 7.38683 35.3611 7.24966L35.3842 7.22019C35.6717 6.85346 36.0443 6.38107 36.4155 5.99961C36.6007 5.80927 36.8127 5.61298 37.038 5.45795C37.2381 5.3202 37.5798 5.12195 38 5.12195C38.4202 5.12195 38.7619 5.3202 38.962 5.45795C39.1873 5.61298 39.3993 5.80927 39.5845 5.99961C39.9557 6.38107 40.3283 6.85346 40.6158 7.22019L40.6389 7.24966C40.7465 7.38683 40.8775 7.55346 40.9674 7.70283L40.9698 7.70673C41.0335 7.81229 41.3281 8.30029 41.0598 8.85327C40.7922 9.40507 40.2301 9.47512 40.1068 9.49054L40.1035 9.49093C39.9314 9.51249 39.721 9.51229 39.5497 9.51219H38.9814V13.9024Z" fill="white" fill-opacity="0.12"/>
<path fill-rule="evenodd" clip-rule="evenodd" d="M56 37.9442C56 35.8069 56 34.1282 56.1762 32.8176C56.3568 31.4745 56.7344 30.4089 57.5716 29.5716C58.4089 28.7343 59.4745 28.3568 60.8176 28.1762C62.1282 28 63.807 28 65.9442 28L66.0558 28C68.1931 28 69.8718 28 71.1824 28.1762C72.5255 28.3568 73.5911 28.7343 74.4284 29.5716C75.2657 30.4089 75.6432 31.4745 75.8238 32.8176C76 34.1282 76 35.8069 76 37.9442L76 38.0558C76 40.1931 76 41.8718 75.8238 43.1824C75.6432 44.5255 75.2657 45.5911 74.4284 46.4284C73.5911 47.2656 72.5255 47.6432 71.1824 47.8238C69.8718 48 68.1931 48 66.0558 48L65.9442 48C63.807 48 62.1282 48 60.8176 47.8238C59.4745 47.6432 58.4089 47.2656 57.5716 46.4284C56.7344 45.5911 56.3568 44.5255 56.1762 43.1824C56 41.8718 56 40.1931 56 38.0558L56 37.9442ZM62.0976 37.0186C61.5588 37.0186 61.122 37.4555 61.122 37.9942C61.122 38.5331 61.5588 38.9699 62.0976 38.9699L66.4878 38.9699L66.4878 39.5497C66.4877 39.721 66.4875 39.9314 66.5091 40.1035L66.5095 40.1068C66.5249 40.2302 66.5949 40.7922 67.1467 41.0598C67.6998 41.3281 68.1877 41.0335 68.2933 40.9698L68.2972 40.9674C68.4464 40.8774 68.6132 40.7466 68.7503 40.6389L68.7798 40.6158C69.1465 40.3283 69.6189 39.9557 70.0004 39.5845C70.1907 39.3993 70.387 39.1873 70.542 38.962C70.6798 38.7619 70.878 38.4202 70.878 38C70.878 37.5798 70.6798 37.2381 70.542 37.0379C70.387 36.8127 70.1907 36.6007 70.0004 36.4155C69.6189 36.0443 69.1465 35.6717 68.7798 35.3842L68.7503 35.3611C68.6132 35.2535 68.4465 35.1225 68.2972 35.0326L68.2933 35.0302C68.1877 34.9665 67.6997 34.6719 67.1467 34.9402C66.5949 35.2078 66.5249 35.7699 66.5095 35.8932L66.5091 35.8965C66.4875 36.0686 66.4877 36.279 66.4878 36.4503L66.4878 37.0186L62.0976 37.0186Z" fill="white" fill-opacity="0.8"/>
</svg>
