<svg width="52" height="52" viewBox="0 0 52 52" fill="none" xmlns="http://www.w3.org/2000/svg">
<g clip-path="url(#clip0_38_3836)">
<path d="M2.57771 23.4294H43.1409L29.3656 9.6542C29.1171 9.41413 28.9188 9.12695 28.7824 8.80943C28.646 8.49191 28.5742 8.1504 28.5712 7.80484C28.5682 7.45928 28.6341 7.11658 28.7649 6.79673C28.8958 6.47689 29.089 6.18631 29.3334 5.94195C29.5777 5.69759 29.8683 5.50435 30.1882 5.37349C30.508 5.24263 30.8507 5.17678 31.1963 5.17979C31.5418 5.18279 31.8833 5.25458 32.2009 5.39098C32.5184 5.52738 32.8056 5.72564 33.0456 5.97421L51.2634 24.192C51.7513 24.68 52.0254 25.3419 52.0254 26.032C52.0254 26.7221 51.7513 27.3839 51.2634 27.872L33.0456 46.0898C32.5548 46.5638 31.8974 46.8261 31.215 46.8202C30.5326 46.8143 29.8799 46.5406 29.3973 46.058C28.9148 45.5755 28.6411 44.9228 28.6352 44.2404C28.6292 43.558 28.8916 42.9006 29.3656 42.4098L43.1409 28.6345H2.57771C1.88747 28.6345 1.2255 28.3603 0.737431 27.8723C0.249359 27.3842 -0.0248337 26.7222 -0.0248337 26.032C-0.0248337 25.3417 0.249359 24.6798 0.737431 24.1917C1.2255 23.7036 1.88747 23.4294 2.57771 23.4294Z" fill="white"/>
</g>
<defs>
<clipPath id="clip0_38_3836">
<rect width="52" height="52" fill="white" transform="matrix(-1 0 0 1 52 0)"/>
</clipPath>
</defs>
</svg>
