<svg width="200" height="200" viewBox="0 0 200 200" fill="none" xmlns="http://www.w3.org/2000/svg">
<g clip-path="url(#clip0_38_8315)">
<path d="M200 0H0V200H200V0Z" fill="white"/>
<path d="M75.6759 10.8105H70.2705V16.216H75.6759V10.8105Z" fill="black"/>
<path d="M86.4865 10.8105H81.0811V16.216H86.4865V10.8105Z" fill="black"/>
<path d="M91.8922 10.8105H86.4868V16.216H91.8922V10.8105Z" fill="black"/>
<path d="M102.703 10.8105H97.2974V16.216H102.703V10.8105Z" fill="black"/>
<path d="M108.109 10.8105H102.703V16.216H108.109V10.8105Z" fill="black"/>
<path d="M113.514 10.8105H108.108V16.216H113.514V10.8105Z" fill="black"/>
<path d="M129.73 10.8105H124.325V16.216H129.73V10.8105Z" fill="black"/>
<path d="M135.135 10.8105H129.73V16.216H135.135V10.8105Z" fill="black"/>
<path d="M59.4596 16.2158H54.0542V21.6212H59.4596V16.2158Z" fill="black"/>
<path d="M81.0812 16.2158H75.6758V21.6212H81.0812V16.2158Z" fill="black"/>
<path d="M91.8922 16.2158H86.4868V21.6212H91.8922V16.2158Z" fill="black"/>
<path d="M102.703 16.2158H97.2974V21.6212H102.703V16.2158Z" fill="black"/>
<path d="M108.109 16.2158H102.703V21.6212H108.109V16.2158Z" fill="black"/>
<path d="M124.324 16.2158H118.919V21.6212H124.324V16.2158Z" fill="black"/>
<path d="M135.135 16.2158H129.73V21.6212H135.135V16.2158Z" fill="black"/>
<path d="M145.946 16.2158H140.541V21.6212H145.946V16.2158Z" fill="black"/>
<path d="M59.4596 21.6211H54.0542V27.0265H59.4596V21.6211Z" fill="black"/>
<path d="M64.8649 21.6211H59.4595V27.0265H64.8649V21.6211Z" fill="black"/>
<path d="M91.8922 21.6211H86.4868V27.0265H91.8922V21.6211Z" fill="black"/>
<path d="M97.2975 21.6211H91.8921V27.0265H97.2975V21.6211Z" fill="black"/>
<path d="M102.703 21.6211H97.2974V27.0265H102.703V21.6211Z" fill="black"/>
<path d="M113.514 21.6211H108.108V27.0265H113.514V21.6211Z" fill="black"/>
<path d="M118.919 21.6211H113.514V27.0265H118.919V21.6211Z" fill="black"/>
<path d="M129.73 21.6211H124.325V27.0265H129.73V21.6211Z" fill="black"/>
<path d="M140.541 21.6211H135.135V27.0265H140.541V21.6211Z" fill="black"/>
<path d="M59.4596 27.0264H54.0542V32.4318H59.4596V27.0264Z" fill="black"/>
<path d="M64.8649 27.0264H59.4595V32.4318H64.8649V27.0264Z" fill="black"/>
<path d="M91.8922 27.0264H86.4868V32.4318H91.8922V27.0264Z" fill="black"/>
<path d="M102.703 27.0264H97.2974V32.4318H102.703V27.0264Z" fill="black"/>
<path d="M108.109 27.0264H102.703V32.4318H108.109V27.0264Z" fill="black"/>
<path d="M129.73 27.0264H124.325V32.4318H129.73V27.0264Z" fill="black"/>
<path d="M135.135 27.0264H129.73V32.4318H135.135V27.0264Z" fill="black"/>
<path d="M140.541 27.0264H135.135V32.4318H140.541V27.0264Z" fill="black"/>
<path d="M145.946 27.0264H140.541V32.4318H145.946V27.0264Z" fill="black"/>
<path d="M64.8649 32.4326H59.4595V37.838H64.8649V32.4326Z" fill="black"/>
<path d="M70.2706 32.4326H64.8652V37.838H70.2706V32.4326Z" fill="black"/>
<path d="M86.4865 32.4326H81.0811V37.838H86.4865V32.4326Z" fill="black"/>
<path d="M102.703 32.4326H97.2974V37.838H102.703V32.4326Z" fill="black"/>
<path d="M108.109 32.4326H102.703V37.838H108.109V32.4326Z" fill="black"/>
<path d="M118.919 32.4326H113.514V37.838H118.919V32.4326Z" fill="black"/>
<path d="M124.324 32.4326H118.919V37.838H124.324V32.4326Z" fill="black"/>
<path d="M129.73 32.4326H124.325V37.838H129.73V32.4326Z" fill="black"/>
<path d="M135.135 32.4326H129.73V37.838H135.135V32.4326Z" fill="black"/>
<path d="M140.541 32.4326H135.135V37.838H140.541V32.4326Z" fill="black"/>
<path d="M70.2706 37.8379H64.8652V43.2433H70.2706V37.8379Z" fill="black"/>
<path d="M81.0812 37.8379H75.6758V43.2433H81.0812V37.8379Z" fill="black"/>
<path d="M86.4865 37.8379H81.0811V43.2433H86.4865V37.8379Z" fill="black"/>
<path d="M91.8922 37.8379H86.4868V43.2433H91.8922V37.8379Z" fill="black"/>
<path d="M108.109 37.8379H102.703V43.2433H108.109V37.8379Z" fill="black"/>
<path d="M124.324 37.8379H118.919V43.2433H124.324V37.8379Z" fill="black"/>
<path d="M129.73 37.8379H124.325V43.2433H129.73V37.8379Z" fill="black"/>
<path d="M135.135 37.8379H129.73V43.2433H135.135V37.8379Z" fill="black"/>
<path d="M59.4596 43.2432H54.0542V48.6486H59.4596V43.2432Z" fill="black"/>
<path d="M70.2706 43.2432H64.8652V48.6486H70.2706V43.2432Z" fill="black"/>
<path d="M81.0812 43.2432H75.6758V48.6486H81.0812V43.2432Z" fill="black"/>
<path d="M91.8922 43.2432H86.4868V48.6486H91.8922V43.2432Z" fill="black"/>
<path d="M102.703 43.2432H97.2974V48.6486H102.703V43.2432Z" fill="black"/>
<path d="M113.514 43.2432H108.108V48.6486H113.514V43.2432Z" fill="black"/>
<path d="M124.324 43.2432H118.919V48.6486H124.324V43.2432Z" fill="black"/>
<path d="M135.135 43.2432H129.73V48.6486H135.135V43.2432Z" fill="black"/>
<path d="M145.946 43.2432H140.541V48.6486H145.946V43.2432Z" fill="black"/>
<path d="M59.4596 48.6484H54.0542V54.0538H59.4596V48.6484Z" fill="black"/>
<path d="M81.0812 48.6484H75.6758V54.0538H81.0812V48.6484Z" fill="black"/>
<path d="M91.8922 48.6484H86.4868V54.0538H91.8922V48.6484Z" fill="black"/>
<path d="M102.703 48.6484H97.2974V54.0538H102.703V48.6484Z" fill="black"/>
<path d="M124.324 48.6484H118.919V54.0538H124.324V48.6484Z" fill="black"/>
<path d="M135.135 48.6484H129.73V54.0538H135.135V48.6484Z" fill="black"/>
<path d="M145.946 48.6484H140.541V54.0538H145.946V48.6484Z" fill="black"/>
<path d="M16.2164 54.0537H10.811V59.4591H16.2164V54.0537Z" fill="black"/>
<path d="M48.6491 54.0537H43.2437V59.4591H48.6491V54.0537Z" fill="black"/>
<path d="M59.4596 54.0537H54.0542V59.4591H59.4596V54.0537Z" fill="black"/>
<path d="M70.2706 54.0537H64.8652V59.4591H70.2706V54.0537Z" fill="black"/>
<path d="M81.0812 54.0537H75.6758V59.4591H81.0812V54.0537Z" fill="black"/>
<path d="M86.4865 54.0537H81.0811V59.4591H86.4865V54.0537Z" fill="black"/>
<path d="M91.8922 54.0537H86.4868V59.4591H91.8922V54.0537Z" fill="black"/>
<path d="M108.109 54.0537H102.703V59.4591H108.109V54.0537Z" fill="black"/>
<path d="M135.135 54.0537H129.73V59.4591H135.135V54.0537Z" fill="black"/>
<path d="M140.541 54.0537H135.135V59.4591H140.541V54.0537Z" fill="black"/>
<path d="M145.946 54.0537H140.541V59.4591H145.946V54.0537Z" fill="black"/>
<path d="M151.352 54.0537H145.946V59.4591H151.352V54.0537Z" fill="black"/>
<path d="M156.757 54.0537H151.352V59.4591H156.757V54.0537Z" fill="black"/>
<path d="M172.973 54.0537H167.568V59.4591H172.973V54.0537Z" fill="black"/>
<path d="M178.379 54.0537H172.973V59.4591H178.379V54.0537Z" fill="black"/>
<path d="M183.784 54.0537H178.378V59.4591H183.784V54.0537Z" fill="black"/>
<path d="M21.6217 59.459H16.2163V64.8644H21.6217V59.459Z" fill="black"/>
<path d="M37.838 59.459H32.4326V64.8644H37.838V59.459Z" fill="black"/>
<path d="M54.0543 59.459H48.6489V64.8644H54.0543V59.459Z" fill="black"/>
<path d="M59.4596 59.459H54.0542V64.8644H59.4596V59.459Z" fill="black"/>
<path d="M64.8649 59.459H59.4595V64.8644H64.8649V59.459Z" fill="black"/>
<path d="M75.6759 59.459H70.2705V64.8644H75.6759V59.459Z" fill="black"/>
<path d="M81.0812 59.459H75.6758V64.8644H81.0812V59.459Z" fill="black"/>
<path d="M86.4865 59.459H81.0811V64.8644H86.4865V59.459Z" fill="black"/>
<path d="M91.8922 59.459H86.4868V64.8644H91.8922V59.459Z" fill="black"/>
<path d="M97.2975 59.459H91.8921V64.8644H97.2975V59.459Z" fill="black"/>
<path d="M113.514 59.459H108.108V64.8644H113.514V59.459Z" fill="black"/>
<path d="M118.919 59.459H113.514V64.8644H118.919V59.459Z" fill="black"/>
<path d="M129.73 59.459H124.325V64.8644H129.73V59.459Z" fill="black"/>
<path d="M135.135 59.459H129.73V64.8644H135.135V59.459Z" fill="black"/>
<path d="M140.541 59.459H135.135V64.8644H140.541V59.459Z" fill="black"/>
<path d="M145.946 59.459H140.541V64.8644H145.946V59.459Z" fill="black"/>
<path d="M167.568 59.459H162.163V64.8644H167.568V59.459Z" fill="black"/>
<path d="M172.973 59.459H167.568V64.8644H172.973V59.459Z" fill="black"/>
<path d="M178.379 59.459H172.973V64.8644H178.379V59.459Z" fill="black"/>
<path d="M183.784 59.459H178.378V64.8644H183.784V59.459Z" fill="black"/>
<path d="M16.2164 64.8643H10.811V70.2697H16.2164V64.8643Z" fill="black"/>
<path d="M27.0275 64.8643H21.6221V70.2697H27.0275V64.8643Z" fill="black"/>
<path d="M32.4327 64.8643H27.0273V70.2697H32.4327V64.8643Z" fill="black"/>
<path d="M43.2433 64.8643H37.8379V70.2697H43.2433V64.8643Z" fill="black"/>
<path d="M48.6491 64.8643H43.2437V70.2697H48.6491V64.8643Z" fill="black"/>
<path d="M70.2706 64.8643H64.8652V70.2697H70.2706V64.8643Z" fill="black"/>
<path d="M86.4865 64.8643H81.0811V70.2697H86.4865V64.8643Z" fill="black"/>
<path d="M91.8922 64.8643H86.4868V70.2697H91.8922V64.8643Z" fill="black"/>
<path d="M97.2975 64.8643H91.8921V70.2697H97.2975V64.8643Z" fill="black"/>
<path d="M108.109 64.8643H102.703V70.2697H108.109V64.8643Z" fill="black"/>
<path d="M129.73 64.8643H124.325V70.2697H129.73V64.8643Z" fill="black"/>
<path d="M135.135 64.8643H129.73V70.2697H135.135V64.8643Z" fill="black"/>
<path d="M167.568 64.8643H162.163V70.2697H167.568V64.8643Z" fill="black"/>
<path d="M178.379 64.8643H172.973V70.2697H178.379V64.8643Z" fill="black"/>
<path d="M183.784 64.8643H178.378V70.2697H183.784V64.8643Z" fill="black"/>
<path d="M16.2164 70.2695H10.811V75.6749H16.2164V70.2695Z" fill="black"/>
<path d="M27.0275 70.2695H21.6221V75.6749H27.0275V70.2695Z" fill="black"/>
<path d="M32.4327 70.2695H27.0273V75.6749H32.4327V70.2695Z" fill="black"/>
<path d="M43.2433 70.2695H37.8379V75.6749H43.2433V70.2695Z" fill="black"/>
<path d="M54.0543 70.2695H48.6489V75.6749H54.0543V70.2695Z" fill="black"/>
<path d="M59.4596 70.2695H54.0542V75.6749H59.4596V70.2695Z" fill="black"/>
<path d="M70.2706 70.2695H64.8652V75.6749H70.2706V70.2695Z" fill="black"/>
<path d="M81.0812 70.2695H75.6758V75.6749H81.0812V70.2695Z" fill="black"/>
<path d="M86.4865 70.2695H81.0811V75.6749H86.4865V70.2695Z" fill="black"/>
<path d="M97.2975 70.2695H91.8921V75.6749H97.2975V70.2695Z" fill="black"/>
<path d="M113.514 70.2695H108.108V75.6749H113.514V70.2695Z" fill="black"/>
<path d="M118.919 70.2695H113.514V75.6749H118.919V70.2695Z" fill="black"/>
<path d="M124.324 70.2695H118.919V75.6749H124.324V70.2695Z" fill="black"/>
<path d="M135.135 70.2695H129.73V75.6749H135.135V70.2695Z" fill="black"/>
<path d="M145.946 70.2695H140.541V75.6749H145.946V70.2695Z" fill="black"/>
<path d="M151.352 70.2695H145.946V75.6749H151.352V70.2695Z" fill="black"/>
<path d="M162.162 70.2695H156.757V75.6749H162.162V70.2695Z" fill="black"/>
<path d="M167.568 70.2695H162.163V75.6749H167.568V70.2695Z" fill="black"/>
<path d="M172.973 70.2695H167.568V75.6749H172.973V70.2695Z" fill="black"/>
<path d="M178.379 70.2695H172.973V75.6749H178.379V70.2695Z" fill="black"/>
<path d="M16.2164 75.6758H10.811V81.0812H16.2164V75.6758Z" fill="black"/>
<path d="M32.4327 75.6758H27.0273V81.0812H32.4327V75.6758Z" fill="black"/>
<path d="M37.838 75.6758H32.4326V81.0812H37.838V75.6758Z" fill="black"/>
<path d="M48.6491 75.6758H43.2437V81.0812H48.6491V75.6758Z" fill="black"/>
<path d="M59.4596 75.6758H54.0542V81.0812H59.4596V75.6758Z" fill="black"/>
<path d="M70.2706 75.6758H64.8652V81.0812H70.2706V75.6758Z" fill="black"/>
<path d="M81.0812 75.6758H75.6758V81.0812H81.0812V75.6758Z" fill="black"/>
<path d="M86.4865 75.6758H81.0811V81.0812H86.4865V75.6758Z" fill="black"/>
<path d="M97.2975 75.6758H91.8921V81.0812H97.2975V75.6758Z" fill="black"/>
<path d="M102.703 75.6758H97.2974V81.0812H102.703V75.6758Z" fill="black"/>
<path d="M124.324 75.6758H118.919V81.0812H124.324V75.6758Z" fill="black"/>
<path d="M145.946 75.6758H140.541V81.0812H145.946V75.6758Z" fill="black"/>
<path d="M156.757 75.6758H151.352V81.0812H156.757V75.6758Z" fill="black"/>
<path d="M162.162 75.6758H156.757V81.0812H162.162V75.6758Z" fill="black"/>
<path d="M183.784 75.6758H178.378V81.0812H183.784V75.6758Z" fill="black"/>
<path d="M189.19 75.6758H183.784V81.0812H189.19V75.6758Z" fill="black"/>
<path d="M16.2164 81.0811H10.811V86.4865H16.2164V81.0811Z" fill="black"/>
<path d="M27.0275 81.0811H21.6221V86.4865H27.0275V81.0811Z" fill="black"/>
<path d="M54.0543 81.0811H48.6489V86.4865H54.0543V81.0811Z" fill="black"/>
<path d="M59.4596 81.0811H54.0542V86.4865H59.4596V81.0811Z" fill="black"/>
<path d="M64.8649 81.0811H59.4595V86.4865H64.8649V81.0811Z" fill="black"/>
<path d="M75.6759 81.0811H70.2705V86.4865H75.6759V81.0811Z" fill="black"/>
<path d="M97.2975 81.0811H91.8921V86.4865H97.2975V81.0811Z" fill="black"/>
<path d="M102.703 81.0811H97.2974V86.4865H102.703V81.0811Z" fill="black"/>
<path d="M108.109 81.0811H102.703V86.4865H108.109V81.0811Z" fill="black"/>
<path d="M113.514 81.0811H108.108V86.4865H113.514V81.0811Z" fill="black"/>
<path d="M118.919 81.0811H113.514V86.4865H118.919V81.0811Z" fill="black"/>
<path d="M124.324 81.0811H118.919V86.4865H124.324V81.0811Z" fill="black"/>
<path d="M129.73 81.0811H124.325V86.4865H129.73V81.0811Z" fill="black"/>
<path d="M140.541 81.0811H135.135V86.4865H140.541V81.0811Z" fill="black"/>
<path d="M156.757 81.0811H151.352V86.4865H156.757V81.0811Z" fill="black"/>
<path d="M162.162 81.0811H156.757V86.4865H162.162V81.0811Z" fill="black"/>
<path d="M178.379 81.0811H172.973V86.4865H178.379V81.0811Z" fill="black"/>
<path d="M183.784 81.0811H178.378V86.4865H183.784V81.0811Z" fill="black"/>
<path d="M189.19 81.0811H183.784V86.4865H189.19V81.0811Z" fill="black"/>
<path d="M21.6217 86.4863H16.2163V91.8917H21.6217V86.4863Z" fill="black"/>
<path d="M27.0275 86.4863H21.6221V91.8917H27.0275V86.4863Z" fill="black"/>
<path d="M32.4327 86.4863H27.0273V91.8917H32.4327V86.4863Z" fill="black"/>
<path d="M37.838 86.4863H32.4326V91.8917H37.838V86.4863Z" fill="black"/>
<path d="M48.6491 86.4863H43.2437V91.8917H48.6491V86.4863Z" fill="black"/>
<path d="M64.8649 86.4863H59.4595V91.8917H64.8649V86.4863Z" fill="black"/>
<path d="M97.2975 86.4863H91.8921V91.8917H97.2975V86.4863Z" fill="black"/>
<path d="M102.703 86.4863H97.2974V91.8917H102.703V86.4863Z" fill="black"/>
<path d="M135.135 86.4863H129.73V91.8917H135.135V86.4863Z" fill="black"/>
<path d="M151.352 86.4863H145.946V91.8917H151.352V86.4863Z" fill="black"/>
<path d="M156.757 86.4863H151.352V91.8917H156.757V86.4863Z" fill="black"/>
<path d="M162.162 86.4863H156.757V91.8917H162.162V86.4863Z" fill="black"/>
<path d="M172.973 86.4863H167.568V91.8917H172.973V86.4863Z" fill="black"/>
<path d="M183.784 86.4863H178.378V91.8917H183.784V86.4863Z" fill="black"/>
<path d="M16.2164 91.8916H10.811V97.297H16.2164V91.8916Z" fill="black"/>
<path d="M27.0275 91.8916H21.6221V97.297H27.0275V91.8916Z" fill="black"/>
<path d="M43.2433 91.8916H37.8379V97.297H43.2433V91.8916Z" fill="black"/>
<path d="M54.0543 91.8916H48.6489V97.297H54.0543V91.8916Z" fill="black"/>
<path d="M70.2706 91.8916H64.8652V97.297H70.2706V91.8916Z" fill="black"/>
<path d="M81.0812 91.8916H75.6758V97.297H81.0812V91.8916Z" fill="black"/>
<path d="M102.703 91.8916H97.2974V97.297H102.703V91.8916Z" fill="black"/>
<path d="M118.919 91.8916H113.514V97.297H118.919V91.8916Z" fill="black"/>
<path d="M124.324 91.8916H118.919V97.297H124.324V91.8916Z" fill="black"/>
<path d="M140.541 91.8916H135.135V97.297H140.541V91.8916Z" fill="black"/>
<path d="M151.352 91.8916H145.946V97.297H151.352V91.8916Z" fill="black"/>
<path d="M162.162 91.8916H156.757V97.297H162.162V91.8916Z" fill="black"/>
<path d="M167.568 91.8916H162.163V97.297H167.568V91.8916Z" fill="black"/>
<path d="M178.379 91.8916H172.973V97.297H178.379V91.8916Z" fill="black"/>
<path d="M189.19 91.8916H183.784V97.297H189.19V91.8916Z" fill="black"/>
<path d="M21.6217 97.2969H16.2163V102.702H21.6217V97.2969Z" fill="black"/>
<path d="M27.0275 97.2969H21.6221V102.702H27.0275V97.2969Z" fill="black"/>
<path d="M37.838 97.2969H32.4326V102.702H37.838V97.2969Z" fill="black"/>
<path d="M43.2433 97.2969H37.8379V102.702H43.2433V97.2969Z" fill="black"/>
<path d="M48.6491 97.2969H43.2437V102.702H48.6491V97.2969Z" fill="black"/>
<path d="M64.8649 97.2969H59.4595V102.702H64.8649V97.2969Z" fill="black"/>
<path d="M75.6759 97.2969H70.2705V102.702H75.6759V97.2969Z" fill="black"/>
<path d="M81.0812 97.2969H75.6758V102.702H81.0812V97.2969Z" fill="black"/>
<path d="M86.4865 97.2969H81.0811V102.702H86.4865V97.2969Z" fill="black"/>
<path d="M102.703 97.2969H97.2974V102.702H102.703V97.2969Z" fill="black"/>
<path d="M108.109 97.2969H102.703V102.702H108.109V97.2969Z" fill="black"/>
<path d="M113.514 97.2969H108.108V102.702H113.514V97.2969Z" fill="black"/>
<path d="M135.135 97.2969H129.73V102.702H135.135V97.2969Z" fill="black"/>
<path d="M140.541 97.2969H135.135V102.702H140.541V97.2969Z" fill="black"/>
<path d="M151.352 97.2969H145.946V102.702H151.352V97.2969Z" fill="black"/>
<path d="M162.162 97.2969H156.757V102.702H162.162V97.2969Z" fill="black"/>
<path d="M167.568 97.2969H162.163V102.702H167.568V97.2969Z" fill="black"/>
<path d="M189.19 97.2969H183.784V102.702H189.19V97.2969Z" fill="black"/>
<path d="M16.2164 102.702H10.811V108.108H16.2164V102.702Z" fill="black"/>
<path d="M21.6217 102.702H16.2163V108.108H21.6217V102.702Z" fill="black"/>
<path d="M27.0275 102.702H21.6221V108.108H27.0275V102.702Z" fill="black"/>
<path d="M32.4327 102.702H27.0273V108.108H32.4327V102.702Z" fill="black"/>
<path d="M37.838 102.702H32.4326V108.108H37.838V102.702Z" fill="black"/>
<path d="M54.0543 102.702H48.6489V108.108H54.0543V102.702Z" fill="black"/>
<path d="M59.4596 102.702H54.0542V108.108H59.4596V102.702Z" fill="black"/>
<path d="M75.6759 102.702H70.2705V108.108H75.6759V102.702Z" fill="black"/>
<path d="M86.4865 102.702H81.0811V108.108H86.4865V102.702Z" fill="black"/>
<path d="M97.2975 102.702H91.8921V108.108H97.2975V102.702Z" fill="black"/>
<path d="M102.703 102.702H97.2974V108.108H102.703V102.702Z" fill="black"/>
<path d="M113.514 102.702H108.108V108.108H113.514V102.702Z" fill="black"/>
<path d="M118.919 102.702H113.514V108.108H118.919V102.702Z" fill="black"/>
<path d="M140.541 102.702H135.135V108.108H140.541V102.702Z" fill="black"/>
<path d="M151.352 102.702H145.946V108.108H151.352V102.702Z" fill="black"/>
<path d="M156.757 102.702H151.352V108.108H156.757V102.702Z" fill="black"/>
<path d="M172.973 102.702H167.568V108.108H172.973V102.702Z" fill="black"/>
<path d="M178.379 102.702H172.973V108.108H178.379V102.702Z" fill="black"/>
<path d="M183.784 102.702H178.378V108.108H183.784V102.702Z" fill="black"/>
<path d="M189.19 102.702H183.784V108.108H189.19V102.702Z" fill="black"/>
<path d="M16.2164 108.107H10.811V113.513H16.2164V108.107Z" fill="black"/>
<path d="M27.0275 108.107H21.6221V113.513H27.0275V108.107Z" fill="black"/>
<path d="M37.838 108.107H32.4326V113.513H37.838V108.107Z" fill="black"/>
<path d="M43.2433 108.107H37.8379V113.513H43.2433V108.107Z" fill="black"/>
<path d="M48.6491 108.107H43.2437V113.513H48.6491V108.107Z" fill="black"/>
<path d="M59.4596 108.107H54.0542V113.513H59.4596V108.107Z" fill="black"/>
<path d="M64.8649 108.107H59.4595V113.513H64.8649V108.107Z" fill="black"/>
<path d="M70.2706 108.107H64.8652V113.513H70.2706V108.107Z" fill="black"/>
<path d="M97.2975 108.107H91.8921V113.513H97.2975V108.107Z" fill="black"/>
<path d="M108.109 108.107H102.703V113.513H108.109V108.107Z" fill="black"/>
<path d="M118.919 108.107H113.514V113.513H118.919V108.107Z" fill="black"/>
<path d="M135.135 108.107H129.73V113.513H135.135V108.107Z" fill="black"/>
<path d="M140.541 108.107H135.135V113.513H140.541V108.107Z" fill="black"/>
<path d="M151.352 108.107H145.946V113.513H151.352V108.107Z" fill="black"/>
<path d="M162.162 108.107H156.757V113.513H162.162V108.107Z" fill="black"/>
<path d="M172.973 108.107H167.568V113.513H172.973V108.107Z" fill="black"/>
<path d="M178.379 108.107H172.973V113.513H178.379V108.107Z" fill="black"/>
<path d="M189.19 108.107H183.784V113.513H189.19V108.107Z" fill="black"/>
<path d="M21.6217 113.514H16.2163V118.919H21.6217V113.514Z" fill="black"/>
<path d="M27.0275 113.514H21.6221V118.919H27.0275V113.514Z" fill="black"/>
<path d="M32.4327 113.514H27.0273V118.919H32.4327V113.514Z" fill="black"/>
<path d="M43.2433 113.514H37.8379V118.919H43.2433V113.514Z" fill="black"/>
<path d="M54.0543 113.514H48.6489V118.919H54.0543V113.514Z" fill="black"/>
<path d="M59.4596 113.514H54.0542V118.919H59.4596V113.514Z" fill="black"/>
<path d="M64.8649 113.514H59.4595V118.919H64.8649V113.514Z" fill="black"/>
<path d="M81.0812 113.514H75.6758V118.919H81.0812V113.514Z" fill="black"/>
<path d="M86.4865 113.514H81.0811V118.919H86.4865V113.514Z" fill="black"/>
<path d="M91.8922 113.514H86.4868V118.919H91.8922V113.514Z" fill="black"/>
<path d="M97.2975 113.514H91.8921V118.919H97.2975V113.514Z" fill="black"/>
<path d="M102.703 113.514H97.2974V118.919H102.703V113.514Z" fill="black"/>
<path d="M124.324 113.514H118.919V118.919H124.324V113.514Z" fill="black"/>
<path d="M135.135 113.514H129.73V118.919H135.135V113.514Z" fill="black"/>
<path d="M145.946 113.514H140.541V118.919H145.946V113.514Z" fill="black"/>
<path d="M151.352 113.514H145.946V118.919H151.352V113.514Z" fill="black"/>
<path d="M167.568 113.514H162.163V118.919H167.568V113.514Z" fill="black"/>
<path d="M172.973 113.514H167.568V118.919H172.973V113.514Z" fill="black"/>
<path d="M178.379 113.514H172.973V118.919H178.379V113.514Z" fill="black"/>
<path d="M48.6491 118.919H43.2437V124.324H48.6491V118.919Z" fill="black"/>
<path d="M64.8649 118.919H59.4595V124.324H64.8649V118.919Z" fill="black"/>
<path d="M81.0812 118.919H75.6758V124.324H81.0812V118.919Z" fill="black"/>
<path d="M91.8922 118.919H86.4868V124.324H91.8922V118.919Z" fill="black"/>
<path d="M108.109 118.919H102.703V124.324H108.109V118.919Z" fill="black"/>
<path d="M124.324 118.919H118.919V124.324H124.324V118.919Z" fill="black"/>
<path d="M135.135 118.919H129.73V124.324H135.135V118.919Z" fill="black"/>
<path d="M151.352 118.919H145.946V124.324H151.352V118.919Z" fill="black"/>
<path d="M167.568 118.919H162.163V124.324H167.568V118.919Z" fill="black"/>
<path d="M172.973 118.919H167.568V124.324H172.973V118.919Z" fill="black"/>
<path d="M16.2164 124.324H10.811V129.73H16.2164V124.324Z" fill="black"/>
<path d="M27.0275 124.324H21.6221V129.73H27.0275V124.324Z" fill="black"/>
<path d="M43.2433 124.324H37.8379V129.73H43.2433V124.324Z" fill="black"/>
<path d="M54.0543 124.324H48.6489V129.73H54.0543V124.324Z" fill="black"/>
<path d="M70.2706 124.324H64.8652V129.73H70.2706V124.324Z" fill="black"/>
<path d="M75.6759 124.324H70.2705V129.73H75.6759V124.324Z" fill="black"/>
<path d="M81.0812 124.324H75.6758V129.73H81.0812V124.324Z" fill="black"/>
<path d="M91.8922 124.324H86.4868V129.73H91.8922V124.324Z" fill="black"/>
<path d="M97.2975 124.324H91.8921V129.73H97.2975V124.324Z" fill="black"/>
<path d="M108.109 124.324H102.703V129.73H108.109V124.324Z" fill="black"/>
<path d="M113.514 124.324H108.108V129.73H113.514V124.324Z" fill="black"/>
<path d="M118.919 124.324H113.514V129.73H118.919V124.324Z" fill="black"/>
<path d="M129.73 124.324H124.325V129.73H129.73V124.324Z" fill="black"/>
<path d="M135.135 124.324H129.73V129.73H135.135V124.324Z" fill="black"/>
<path d="M140.541 124.324H135.135V129.73H140.541V124.324Z" fill="black"/>
<path d="M145.946 124.324H140.541V129.73H145.946V124.324Z" fill="black"/>
<path d="M162.162 124.324H156.757V129.73H162.162V124.324Z" fill="black"/>
<path d="M167.568 124.324H162.163V129.73H167.568V124.324Z" fill="black"/>
<path d="M172.973 124.324H167.568V129.73H172.973V124.324Z" fill="black"/>
<path d="M16.2164 129.729H10.811V135.135H16.2164V129.729Z" fill="black"/>
<path d="M27.0275 129.729H21.6221V135.135H27.0275V129.729Z" fill="black"/>
<path d="M32.4327 129.729H27.0273V135.135H32.4327V129.729Z" fill="black"/>
<path d="M43.2433 129.729H37.8379V135.135H43.2433V129.729Z" fill="black"/>
<path d="M48.6491 129.729H43.2437V135.135H48.6491V129.729Z" fill="black"/>
<path d="M59.4596 129.729H54.0542V135.135H59.4596V129.729Z" fill="black"/>
<path d="M97.2975 129.729H91.8921V135.135H97.2975V129.729Z" fill="black"/>
<path d="M108.109 129.729H102.703V135.135H108.109V129.729Z" fill="black"/>
<path d="M135.135 129.729H129.73V135.135H135.135V129.729Z" fill="black"/>
<path d="M172.973 129.729H167.568V135.135H172.973V129.729Z" fill="black"/>
<path d="M183.784 129.729H178.378V135.135H183.784V129.729Z" fill="black"/>
<path d="M16.2164 135.135H10.811V140.54H16.2164V135.135Z" fill="black"/>
<path d="M27.0275 135.135H21.6221V140.54H27.0275V135.135Z" fill="black"/>
<path d="M32.4327 135.135H27.0273V140.54H32.4327V135.135Z" fill="black"/>
<path d="M37.838 135.135H32.4326V140.54H37.838V135.135Z" fill="black"/>
<path d="M54.0543 135.135H48.6489V140.54H54.0543V135.135Z" fill="black"/>
<path d="M64.8649 135.135H59.4595V140.54H64.8649V135.135Z" fill="black"/>
<path d="M81.0812 135.135H75.6758V140.54H81.0812V135.135Z" fill="black"/>
<path d="M86.4865 135.135H81.0811V140.54H86.4865V135.135Z" fill="black"/>
<path d="M97.2975 135.135H91.8921V140.54H97.2975V135.135Z" fill="black"/>
<path d="M118.919 135.135H113.514V140.54H118.919V135.135Z" fill="black"/>
<path d="M124.324 135.135H118.919V140.54H124.324V135.135Z" fill="black"/>
<path d="M135.135 135.135H129.73V140.54H135.135V135.135Z" fill="black"/>
<path d="M140.541 135.135H135.135V140.54H140.541V135.135Z" fill="black"/>
<path d="M145.946 135.135H140.541V140.54H145.946V135.135Z" fill="black"/>
<path d="M162.162 135.135H156.757V140.54H162.162V135.135Z" fill="black"/>
<path d="M172.973 135.135H167.568V140.54H172.973V135.135Z" fill="black"/>
<path d="M178.379 135.135H172.973V140.54H178.379V135.135Z" fill="black"/>
<path d="M183.784 135.135H178.378V140.54H183.784V135.135Z" fill="black"/>
<path d="M16.2164 140.54H10.811V145.945H16.2164V140.54Z" fill="black"/>
<path d="M21.6217 140.54H16.2163V145.945H21.6217V140.54Z" fill="black"/>
<path d="M43.2433 140.54H37.8379V145.945H43.2433V140.54Z" fill="black"/>
<path d="M48.6491 140.54H43.2437V145.945H48.6491V140.54Z" fill="black"/>
<path d="M75.6759 140.54H70.2705V145.945H75.6759V140.54Z" fill="black"/>
<path d="M81.0812 140.54H75.6758V145.945H81.0812V140.54Z" fill="black"/>
<path d="M86.4865 140.54H81.0811V145.945H86.4865V140.54Z" fill="black"/>
<path d="M91.8922 140.54H86.4868V145.945H91.8922V140.54Z" fill="black"/>
<path d="M97.2975 140.54H91.8921V145.945H97.2975V140.54Z" fill="black"/>
<path d="M102.703 140.54H97.2974V145.945H102.703V140.54Z" fill="black"/>
<path d="M124.324 140.54H118.919V145.945H124.324V140.54Z" fill="black"/>
<path d="M140.541 140.54H135.135V145.945H140.541V140.54Z" fill="black"/>
<path d="M145.946 140.54H140.541V145.945H145.946V140.54Z" fill="black"/>
<path d="M151.352 140.54H145.946V145.945H151.352V140.54Z" fill="black"/>
<path d="M156.757 140.54H151.352V145.945H156.757V140.54Z" fill="black"/>
<path d="M162.162 140.54H156.757V145.945H162.162V140.54Z" fill="black"/>
<path d="M167.568 140.54H162.163V145.945H167.568V140.54Z" fill="black"/>
<path d="M172.973 140.54H167.568V145.945H172.973V140.54Z" fill="black"/>
<path d="M59.4596 145.945H54.0542V151.351H59.4596V145.945Z" fill="black"/>
<path d="M64.8649 145.945H59.4595V151.351H64.8649V145.945Z" fill="black"/>
<path d="M70.2706 145.945H64.8652V151.351H70.2706V145.945Z" fill="black"/>
<path d="M81.0812 145.945H75.6758V151.351H81.0812V145.945Z" fill="black"/>
<path d="M97.2975 145.945H91.8921V151.351H97.2975V145.945Z" fill="black"/>
<path d="M102.703 145.945H97.2974V151.351H102.703V145.945Z" fill="black"/>
<path d="M108.109 145.945H102.703V151.351H108.109V145.945Z" fill="black"/>
<path d="M118.919 145.945H113.514V151.351H118.919V145.945Z" fill="black"/>
<path d="M124.324 145.945H118.919V151.351H124.324V145.945Z" fill="black"/>
<path d="M129.73 145.945H124.325V151.351H129.73V145.945Z" fill="black"/>
<path d="M145.946 145.945H140.541V151.351H145.946V145.945Z" fill="black"/>
<path d="M167.568 145.945H162.163V151.351H167.568V145.945Z" fill="black"/>
<path d="M178.379 145.945H172.973V151.351H178.379V145.945Z" fill="black"/>
<path d="M183.784 145.945H178.378V151.351H183.784V145.945Z" fill="black"/>
<path d="M189.19 145.945H183.784V151.351H189.19V145.945Z" fill="black"/>
<path d="M64.8649 151.351H59.4595V156.756H64.8649V151.351Z" fill="black"/>
<path d="M70.2706 151.351H64.8652V156.756H70.2706V151.351Z" fill="black"/>
<path d="M86.4865 151.351H81.0811V156.756H86.4865V151.351Z" fill="black"/>
<path d="M91.8922 151.351H86.4868V156.756H91.8922V151.351Z" fill="black"/>
<path d="M97.2975 151.351H91.8921V156.756H97.2975V151.351Z" fill="black"/>
<path d="M135.135 151.351H129.73V156.756H135.135V151.351Z" fill="black"/>
<path d="M140.541 151.351H135.135V156.756H140.541V151.351Z" fill="black"/>
<path d="M145.946 151.351H140.541V156.756H145.946V151.351Z" fill="black"/>
<path d="M156.757 151.351H151.352V156.756H156.757V151.351Z" fill="black"/>
<path d="M167.568 151.351H162.163V156.756H167.568V151.351Z" fill="black"/>
<path d="M178.379 151.351H172.973V156.756H178.379V151.351Z" fill="black"/>
<path d="M183.784 151.351H178.378V156.756H183.784V151.351Z" fill="black"/>
<path d="M70.2706 156.757H64.8652V162.162H70.2706V156.757Z" fill="black"/>
<path d="M86.4865 156.757H81.0811V162.162H86.4865V156.757Z" fill="black"/>
<path d="M140.541 156.757H135.135V162.162H140.541V156.757Z" fill="black"/>
<path d="M145.946 156.757H140.541V162.162H145.946V156.757Z" fill="black"/>
<path d="M167.568 156.757H162.163V162.162H167.568V156.757Z" fill="black"/>
<path d="M172.973 156.757H167.568V162.162H172.973V156.757Z" fill="black"/>
<path d="M178.379 156.757H172.973V162.162H178.379V156.757Z" fill="black"/>
<path d="M183.784 156.757H178.378V162.162H183.784V156.757Z" fill="black"/>
<path d="M189.19 156.757H183.784V162.162H189.19V156.757Z" fill="black"/>
<path d="M75.6759 162.162H70.2705V167.568H75.6759V162.162Z" fill="black"/>
<path d="M81.0812 162.162H75.6758V167.568H81.0812V162.162Z" fill="black"/>
<path d="M86.4865 162.162H81.0811V167.568H86.4865V162.162Z" fill="black"/>
<path d="M91.8922 162.162H86.4868V167.568H91.8922V162.162Z" fill="black"/>
<path d="M97.2975 162.162H91.8921V167.568H97.2975V162.162Z" fill="black"/>
<path d="M108.109 162.162H102.703V167.568H108.109V162.162Z" fill="black"/>
<path d="M118.919 162.162H113.514V167.568H118.919V162.162Z" fill="black"/>
<path d="M135.135 162.162H129.73V167.568H135.135V162.162Z" fill="black"/>
<path d="M145.946 162.162H140.541V167.568H145.946V162.162Z" fill="black"/>
<path d="M151.352 162.162H145.946V167.568H151.352V162.162Z" fill="black"/>
<path d="M156.757 162.162H151.352V167.568H156.757V162.162Z" fill="black"/>
<path d="M162.162 162.162H156.757V167.568H162.162V162.162Z" fill="black"/>
<path d="M167.568 162.162H162.163V167.568H167.568V162.162Z" fill="black"/>
<path d="M172.973 162.162H167.568V167.568H172.973V162.162Z" fill="black"/>
<path d="M64.8649 167.567H59.4595V172.973H64.8649V167.567Z" fill="black"/>
<path d="M81.0812 167.567H75.6758V172.973H81.0812V167.567Z" fill="black"/>
<path d="M97.2975 167.567H91.8921V172.973H97.2975V167.567Z" fill="black"/>
<path d="M102.703 167.567H97.2974V172.973H102.703V167.567Z" fill="black"/>
<path d="M113.514 167.567H108.108V172.973H113.514V167.567Z" fill="black"/>
<path d="M118.919 167.567H113.514V172.973H118.919V167.567Z" fill="black"/>
<path d="M145.946 167.567H140.541V172.973H145.946V167.567Z" fill="black"/>
<path d="M151.352 167.567H145.946V172.973H151.352V167.567Z" fill="black"/>
<path d="M162.162 167.567H156.757V172.973H162.162V167.567Z" fill="black"/>
<path d="M167.568 167.567H162.163V172.973H167.568V167.567Z" fill="black"/>
<path d="M172.973 167.567H167.568V172.973H172.973V167.567Z" fill="black"/>
<path d="M178.379 167.567H172.973V172.973H178.379V167.567Z" fill="black"/>
<path d="M183.784 167.567H178.378V172.973H183.784V167.567Z" fill="black"/>
<path d="M189.19 167.567H183.784V172.973H189.19V167.567Z" fill="black"/>
<path d="M81.0812 172.973H75.6758V178.378H81.0812V172.973Z" fill="black"/>
<path d="M91.8922 172.973H86.4868V178.378H91.8922V172.973Z" fill="black"/>
<path d="M97.2975 172.973H91.8921V178.378H97.2975V172.973Z" fill="black"/>
<path d="M113.514 172.973H108.108V178.378H113.514V172.973Z" fill="black"/>
<path d="M118.919 172.973H113.514V178.378H118.919V172.973Z" fill="black"/>
<path d="M151.352 172.973H145.946V178.378H151.352V172.973Z" fill="black"/>
<path d="M162.162 172.973H156.757V178.378H162.162V172.973Z" fill="black"/>
<path d="M167.568 172.973H162.163V178.378H167.568V172.973Z" fill="black"/>
<path d="M172.973 172.973H167.568V178.378H172.973V172.973Z" fill="black"/>
<path d="M178.379 172.973H172.973V178.378H178.379V172.973Z" fill="black"/>
<path d="M183.784 172.973H178.378V178.378H183.784V172.973Z" fill="black"/>
<path d="M189.19 172.973H183.784V178.378H189.19V172.973Z" fill="black"/>
<path d="M64.8649 178.378H59.4595V183.783H64.8649V178.378Z" fill="black"/>
<path d="M70.2706 178.378H64.8652V183.783H70.2706V178.378Z" fill="black"/>
<path d="M75.6759 178.378H70.2705V183.783H75.6759V178.378Z" fill="black"/>
<path d="M81.0812 178.378H75.6758V183.783H81.0812V178.378Z" fill="black"/>
<path d="M97.2975 178.378H91.8921V183.783H97.2975V178.378Z" fill="black"/>
<path d="M102.703 178.378H97.2974V183.783H102.703V178.378Z" fill="black"/>
<path d="M124.324 178.378H118.919V183.783H124.324V178.378Z" fill="black"/>
<path d="M135.135 178.378H129.73V183.783H135.135V178.378Z" fill="black"/>
<path d="M140.541 178.378H135.135V183.783H140.541V178.378Z" fill="black"/>
<path d="M151.352 178.378H145.946V183.783H151.352V178.378Z" fill="black"/>
<path d="M156.757 178.378H151.352V183.783H156.757V178.378Z" fill="black"/>
<path d="M162.162 178.378H156.757V183.783H162.162V178.378Z" fill="black"/>
<path d="M167.568 178.378H162.163V183.783H167.568V178.378Z" fill="black"/>
<path d="M172.973 178.378H167.568V183.783H172.973V178.378Z" fill="black"/>
<path d="M178.379 178.378H172.973V183.783H178.379V178.378Z" fill="black"/>
<path d="M59.4596 183.783H54.0542V189.189H59.4596V183.783Z" fill="black"/>
<path d="M64.8649 183.783H59.4595V189.189H64.8649V183.783Z" fill="black"/>
<path d="M70.2706 183.783H64.8652V189.189H70.2706V183.783Z" fill="black"/>
<path d="M91.8922 183.783H86.4868V189.189H91.8922V183.783Z" fill="black"/>
<path d="M102.703 183.783H97.2974V189.189H102.703V183.783Z" fill="black"/>
<path d="M108.109 183.783H102.703V189.189H108.109V183.783Z" fill="black"/>
<path d="M118.919 183.783H113.514V189.189H118.919V183.783Z" fill="black"/>
<path d="M135.135 183.783H129.73V189.189H135.135V183.783Z" fill="black"/>
<path d="M140.541 183.783H135.135V189.189H140.541V183.783Z" fill="black"/>
<path d="M145.946 183.783H140.541V189.189H145.946V183.783Z" fill="black"/>
<path d="M162.162 183.783H156.757V189.189H162.162V183.783Z" fill="black"/>
<path d="M183.784 183.783H178.378V189.189H183.784V183.783Z" fill="black"/>
<path d="M42.9732 10.8105H16.4867H10.811V16.4862V42.9727V48.6484H16.4867H42.9732H48.6489V42.9727V16.4862V10.8105H42.9732ZM42.9732 42.9727H16.4867V16.4862H42.9732V42.9727Z" fill="black"/>
<path d="M183.514 10.8105H157.027H151.352V16.4862V42.9727V48.6484H157.027H183.514H189.189V42.9727V16.4862V10.8105H183.514ZM183.514 42.9727H157.027V16.4862H183.514V42.9727Z" fill="black"/>
<path d="M42.9732 151.351H16.4867H10.811V157.026V183.513V189.188H16.4867H42.9732H48.6489V183.513V157.026V151.351H42.9732ZM42.9732 183.513H16.4867V157.026H42.9732V183.513Z" fill="black"/>
<path d="M37.8383 21.6211H21.6221V37.8373H37.8383V21.6211Z" fill="black"/>
<path d="M178.379 21.6211H162.163V37.8373H178.379V21.6211Z" fill="black"/>
<path d="M37.8383 162.162H21.6221V178.378H37.8383V162.162Z" fill="black"/>
</g>
<defs>
<clipPath id="clip0_38_8315">
<rect width="200" height="200" fill="white"/>
</clipPath>
</defs>
</svg>
