<svg width="120" height="20" viewBox="0 0 120 20" fill="none" xmlns="http://www.w3.org/2000/svg">
<path d="M12.487 0H7.48698C6.38247 0.00181795 5.32372 0.441388 4.54271 1.2224C3.7617 2.0034 3.32213 3.06216 3.32031 4.16667V13.3333C3.32031 15.1014 4.02269 16.7971 5.27293 18.0474C6.52318 19.2976 8.21887 20 9.98698 20C11.7551 20 13.4508 19.2976 14.701 18.0474C15.9513 16.7971 16.6536 15.1014 16.6536 13.3333V4.16667C16.6518 3.06216 16.2123 2.0034 15.4313 1.2224C14.6502 0.441388 13.5915 0.00181795 12.487 0ZM9.15365 6.66667V3.75C9.15365 3.52899 9.24144 3.31702 9.39772 3.16074C9.554 3.00446 9.76597 2.91667 9.98698 2.91667C10.208 2.91667 10.42 3.00446 10.5762 3.16074C10.7325 3.31702 10.8203 3.52899 10.8203 3.75V6.66667C10.8203 6.88768 10.7325 7.09964 10.5762 7.25592C10.42 7.4122 10.208 7.5 9.98698 7.5C9.76597 7.5 9.554 7.4122 9.39772 7.25592C9.24144 7.09964 9.15365 6.88768 9.15365 6.66667Z" fill="black" fill-opacity="0.32"/>
<path d="M36.832 15.192C36.0107 15.192 35.2907 15.048 34.672 14.76C34.0533 14.4613 33.5733 14.0453 33.232 13.512C32.8907 12.9787 32.72 12.3547 32.72 11.64H34.4C34.4107 12.0453 34.5067 12.4187 34.688 12.76C34.88 13.0907 35.152 13.3573 35.504 13.56C35.8667 13.752 36.3093 13.848 36.832 13.848C37.28 13.848 37.664 13.7733 37.984 13.624C38.3147 13.4747 38.5653 13.272 38.736 13.016C38.9067 12.7493 38.992 12.4453 38.992 12.104C38.992 11.7093 38.9013 11.384 38.72 11.128C38.5387 10.872 38.2933 10.664 37.984 10.504C37.6853 10.3333 37.3333 10.184 36.928 10.056C36.5333 9.928 36.1173 9.78933 35.68 9.64C34.7947 9.352 34.1333 8.97867 33.696 8.52C33.2693 8.06133 33.056 7.464 33.056 6.728C33.056 6.09867 33.2053 5.55467 33.504 5.096C33.8027 4.62667 34.2187 4.264 34.752 4.008C35.296 3.74133 35.936 3.608 36.672 3.608C37.3973 3.608 38.032 3.74133 38.576 4.008C39.12 4.27467 39.5467 4.64267 39.856 5.112C40.1653 5.58133 40.32 6.13067 40.32 6.76H38.624C38.624 6.472 38.5493 6.18933 38.4 5.912C38.2507 5.63467 38.0267 5.41067 37.728 5.24C37.4293 5.05867 37.0613 4.968 36.624 4.968C36.2613 4.95733 35.936 5.016 35.648 5.144C35.36 5.272 35.136 5.45867 34.976 5.704C34.816 5.94933 34.736 6.24267 34.736 6.584C34.736 6.92533 34.8053 7.20267 34.944 7.416C35.0933 7.61867 35.3067 7.79467 35.584 7.944C35.8613 8.09333 36.1813 8.232 36.544 8.36C36.9173 8.47733 37.328 8.61067 37.776 8.76C38.3307 8.94133 38.8213 9.16533 39.248 9.432C39.6853 9.688 40.0267 10.024 40.272 10.44C40.528 10.8453 40.656 11.368 40.656 12.008C40.656 12.5627 40.512 13.08 40.224 13.56C39.936 14.04 39.5093 14.4347 38.944 14.744C38.3787 15.0427 37.6747 15.192 36.832 15.192ZM46.2066 15.192C45.428 15.192 44.7346 15.016 44.1266 14.664C43.5186 14.3013 43.0386 13.8053 42.6866 13.176C42.3453 12.5467 42.1746 11.816 42.1746 10.984C42.1746 10.1413 42.3453 9.40533 42.6866 8.776C43.0386 8.136 43.5186 7.64 44.1266 7.288C44.7346 6.92533 45.428 6.744 46.2066 6.744C47.188 6.744 48.0093 7 48.6706 7.512C49.332 8.024 49.7533 8.71733 49.9346 9.592H48.2706C48.164 9.12267 47.9186 8.76 47.5346 8.504C47.1613 8.248 46.7133 8.12 46.1906 8.12C45.764 8.12 45.3693 8.232 45.0066 8.456C44.644 8.66933 44.3506 8.98933 44.1266 9.416C43.9133 9.832 43.8066 10.3493 43.8066 10.968C43.8066 11.4267 43.8706 11.8373 43.9986 12.2C44.1266 12.552 44.2973 12.8507 44.5106 13.096C44.7346 13.3413 44.9906 13.528 45.2786 13.656C45.5666 13.7733 45.8706 13.832 46.1906 13.832C46.5426 13.832 46.8573 13.7787 47.1346 13.672C47.4226 13.5547 47.6626 13.384 47.8546 13.16C48.0573 12.936 48.196 12.6693 48.2706 12.36H49.9346C49.7533 13.2133 49.332 13.9013 48.6706 14.424C48.0093 14.936 47.188 15.192 46.2066 15.192ZM51.8068 15V6.936H53.2468L53.3908 8.456C53.5721 8.09333 53.8068 7.78933 54.0948 7.544C54.3828 7.288 54.7188 7.09067 55.1028 6.952C55.4974 6.81333 55.9454 6.744 56.4468 6.744V8.44H55.8708C55.5401 8.44 55.2254 8.48267 54.9268 8.568C54.6281 8.64267 54.3614 8.776 54.1268 8.968C53.9028 9.16 53.7268 9.42133 53.5988 9.752C53.4708 10.0827 53.4068 10.4933 53.4068 10.984V15H51.8068ZM61.3618 15.192C60.6044 15.192 59.9218 15.016 59.3138 14.664C58.7164 14.312 58.2418 13.8213 57.8898 13.192C57.5484 12.552 57.3778 11.816 57.3778 10.984C57.3778 10.1307 57.5538 9.38933 57.9058 8.76C58.2578 8.12 58.7378 7.624 59.3458 7.272C59.9538 6.92 60.6364 6.744 61.3938 6.744C62.1618 6.744 62.8444 6.92 63.4418 7.272C64.0391 7.624 64.5084 8.11467 64.8498 8.744C65.2018 9.37333 65.3778 10.1147 65.3778 10.968C65.3778 11.8213 65.2018 12.5627 64.8498 13.192C64.5084 13.8213 64.0338 14.312 63.4258 14.664C62.8178 15.016 62.1298 15.192 61.3618 15.192ZM61.3618 13.816C61.7991 13.816 62.1938 13.7093 62.5458 13.496C62.9084 13.2827 63.1964 12.968 63.4098 12.552C63.6338 12.1253 63.7458 11.5973 63.7458 10.968C63.7458 10.3387 63.6391 9.816 63.4258 9.4C63.2124 8.97333 62.9244 8.65333 62.5618 8.44C62.2098 8.22667 61.8204 8.12 61.3938 8.12C60.9671 8.12 60.5724 8.22667 60.2098 8.44C59.8471 8.65333 59.5538 8.97333 59.3298 9.4C59.1164 9.816 59.0098 10.3387 59.0098 10.968C59.0098 11.5973 59.1164 12.1253 59.3298 12.552C59.5538 12.968 59.8418 13.2827 60.1938 13.496C60.5564 13.7093 60.9458 13.816 61.3618 13.816ZM67.2599 15V3.48H68.8599V15H67.2599ZM71.0568 15V3.48H72.6568V15H71.0568ZM82.5314 15.192C81.7634 15.192 81.086 15.0107 80.4994 14.648C79.9127 14.2747 79.454 13.7733 79.1234 13.144C78.8034 12.504 78.6434 11.7787 78.6434 10.968C78.6434 10.1467 78.8034 9.42133 79.1234 8.792C79.454 8.16267 79.9127 7.66667 80.4994 7.304C81.0967 6.93067 81.7794 6.744 82.5474 6.744C83.1767 6.744 83.7314 6.872 84.2114 7.128C84.6914 7.37333 85.0647 7.72533 85.3314 8.184V3.48H86.9314V15H85.4914L85.3314 13.752C85.1714 13.9973 84.9634 14.232 84.7074 14.456C84.4514 14.6693 84.142 14.8453 83.7794 14.984C83.4167 15.1227 83.0007 15.192 82.5314 15.192ZM82.7874 13.8C83.2887 13.8 83.7314 13.6827 84.1154 13.448C84.4994 13.2133 84.7927 12.8827 84.9954 12.456C85.2087 12.0293 85.3154 11.5333 85.3154 10.968C85.3154 10.4027 85.2087 9.912 84.9954 9.496C84.7927 9.06933 84.4994 8.73867 84.1154 8.504C83.7314 8.25867 83.2887 8.136 82.7874 8.136C82.3074 8.136 81.8754 8.25867 81.4914 8.504C81.1074 8.73867 80.8087 9.06933 80.5954 9.496C80.382 9.912 80.2754 10.4027 80.2754 10.968C80.2754 11.5333 80.382 12.0293 80.5954 12.456C80.8087 12.8827 81.1074 13.2133 81.4914 13.448C81.8754 13.6827 82.3074 13.8 82.7874 13.8ZM92.7993 15.192C92.0419 15.192 91.3593 15.016 90.7513 14.664C90.1539 14.312 89.6793 13.8213 89.3273 13.192C88.9859 12.552 88.8153 11.816 88.8153 10.984C88.8153 10.1307 88.9913 9.38933 89.3433 8.76C89.6953 8.12 90.1753 7.624 90.7833 7.272C91.3913 6.92 92.0739 6.744 92.8313 6.744C93.5993 6.744 94.2819 6.92 94.8793 7.272C95.4766 7.624 95.9459 8.11467 96.2873 8.744C96.6393 9.37333 96.8153 10.1147 96.8153 10.968C96.8153 11.8213 96.6393 12.5627 96.2873 13.192C95.9459 13.8213 95.4713 14.312 94.8633 14.664C94.2553 15.016 93.5673 15.192 92.7993 15.192ZM92.7993 13.816C93.2366 13.816 93.6313 13.7093 93.9833 13.496C94.3459 13.2827 94.6339 12.968 94.8473 12.552C95.0713 12.1253 95.1833 11.5973 95.1833 10.968C95.1833 10.3387 95.0766 9.816 94.8633 9.4C94.6499 8.97333 94.3619 8.65333 93.9993 8.44C93.6473 8.22667 93.2579 8.12 92.8313 8.12C92.4046 8.12 92.0099 8.22667 91.6473 8.44C91.2846 8.65333 90.9913 8.97333 90.7673 9.4C90.5539 9.816 90.4473 10.3387 90.4473 10.968C90.4473 11.5973 90.5539 12.1253 90.7673 12.552C90.9913 12.968 91.2793 13.2827 91.6313 13.496C91.9939 13.7093 92.3833 13.816 92.7993 13.816ZM100.048 15L97.6801 6.936H99.2641L101.024 13.656L100.72 13.64L102.672 6.936H104.464L106.416 13.64L106.112 13.656L107.856 6.936H109.472L107.104 15H105.456L103.408 8.008H103.728L101.68 15H100.048ZM110.916 15V6.936H112.356L112.452 8.312C112.708 7.832 113.071 7.45333 113.54 7.176C114.009 6.888 114.548 6.744 115.156 6.744C115.796 6.744 116.345 6.872 116.804 7.128C117.263 7.384 117.62 7.77333 117.876 8.296C118.132 8.808 118.26 9.45333 118.26 10.232V15H116.66V10.392C116.66 9.64533 116.495 9.08 116.164 8.696C115.833 8.312 115.353 8.12 114.724 8.12C114.308 8.12 113.935 8.22133 113.604 8.424C113.273 8.616 113.007 8.904 112.804 9.288C112.612 9.672 112.516 10.1413 112.516 10.696V15H110.916Z" fill="black" fill-opacity="0.32"/>
</svg>
