<svg width="48" height="20" viewBox="0 0 48 20" fill="none" xmlns="http://www.w3.org/2000/svg">
<path fill-rule="evenodd" clip-rule="evenodd" d="M10.0558 20C12.1931 20 13.8718 20 15.1824 19.8238C16.5255 19.6432 17.5911 19.2656 18.4284 18.4284C19.2657 17.5911 19.6432 16.5255 19.8238 15.1824C20 13.8718 20 12.193 20 10.0558V9.94419C20 7.80693 20 6.12819 19.8238 4.81756C19.6432 3.47453 19.2657 2.40888 18.4284 1.57161C17.5911 0.734343 16.5255 0.356779 15.1824 0.176193C13.8718 -1.90735e-06 12.1931 0 10.0558 0H9.94419C7.80693 0 6.12823 -1.90735e-06 4.81758 0.176193C3.47451 0.356779 2.40889 0.734343 1.57162 1.57161C0.734361 2.40888 0.356761 3.47453 0.176186 4.81756C-1.93352e-05 6.12819 -9.61092e-06 7.80693 1.4518e-07 9.94419V10.0558C-9.61092e-06 12.193 -1.93352e-05 13.8718 0.176186 15.1824C0.356761 16.5255 0.734361 17.5911 1.57162 18.4284C2.40889 19.2656 3.47451 19.6432 4.81758 19.8238C6.12823 20 7.80695 20 9.94419 20H10.0558ZM10.9814 13.9024C10.9814 14.4412 10.5445 14.878 10.0058 14.878C9.46693 14.878 9.03015 14.4412 9.03015 13.9024V9.51219H8.45034C8.27903 9.51229 8.06859 9.51249 7.89646 9.49093L7.8932 9.49054C7.76983 9.47512 7.20784 9.40507 6.94018 8.85327C6.67192 8.30019 6.96649 7.81229 7.03021 7.70673L7.0326 7.70283C7.12256 7.55356 7.25343 7.38683 7.36108 7.24966L7.38424 7.22019C7.67169 6.85346 8.04434 6.38107 8.41551 5.99961C8.60068 5.80927 8.81268 5.61298 9.03795 5.45795C9.23815 5.3202 9.57981 5.12195 10 5.12195C10.4202 5.12195 10.7619 5.3202 10.962 5.45795C11.1873 5.61298 11.3993 5.80927 11.5845 5.99961C11.9557 6.38107 12.3283 6.85346 12.6158 7.22019L12.6389 7.24966C12.7465 7.38683 12.8775 7.55346 12.9674 7.70283L12.9698 7.70673C13.0335 7.81229 13.3281 8.30029 13.0598 8.85327C12.7922 9.40507 12.2301 9.47512 12.1068 9.49054L12.1035 9.49093C11.9314 9.51249 11.721 9.51229 11.5497 9.51219H10.9814V13.9024Z" fill="black" fill-opacity="0.32"/>
<path d="M36.768 15.192C36.0107 15.192 35.328 15.016 34.72 14.664C34.1227 14.312 33.648 13.8213 33.296 13.192C32.9547 12.552 32.784 11.816 32.784 10.984C32.784 10.1307 32.96 9.38933 33.312 8.76C33.664 8.12 34.144 7.624 34.752 7.272C35.36 6.92 36.0427 6.744 36.8 6.744C37.568 6.744 38.2507 6.92 38.848 7.272C39.4453 7.624 39.9147 8.11467 40.256 8.744C40.608 9.37333 40.784 10.1147 40.784 10.968C40.784 11.8213 40.608 12.5627 40.256 13.192C39.9147 13.8213 39.44 14.312 38.832 14.664C38.224 15.016 37.536 15.192 36.768 15.192ZM36.768 13.816C37.2053 13.816 37.6 13.7093 37.952 13.496C38.3147 13.2827 38.6027 12.968 38.816 12.552C39.04 12.1253 39.152 11.5973 39.152 10.968C39.152 10.3387 39.0453 9.816 38.832 9.4C38.6187 8.97333 38.3307 8.65333 37.968 8.44C37.616 8.22667 37.2267 8.12 36.8 8.12C36.3733 8.12 35.9787 8.22667 35.616 8.44C35.2533 8.65333 34.96 8.97333 34.736 9.4C34.5227 9.816 34.416 10.3387 34.416 10.968C34.416 11.5973 34.5227 12.1253 34.736 12.552C34.96 12.968 35.248 13.2827 35.6 13.496C35.9627 13.7093 36.352 13.816 36.768 13.816ZM42.6661 15V6.936H44.1061L44.2501 8.456C44.4315 8.09333 44.6661 7.78933 44.9541 7.544C45.2421 7.288 45.5781 7.09067 45.9621 6.952C46.3568 6.81333 46.8048 6.744 47.3061 6.744V8.44H46.7301C46.3995 8.44 46.0848 8.48267 45.7861 8.568C45.4875 8.64267 45.2208 8.776 44.9861 8.968C44.7621 9.16 44.5861 9.42133 44.4581 9.752C44.3301 10.0827 44.2661 10.4933 44.2661 10.984V15H42.6661Z" fill="black" fill-opacity="0.32"/>
</svg>
